<svg xmlns="http://www.w3.org/2000/svg" xmlns:xlink="http://www.w3.org/1999/xlink" version="1.1" x="0" y="0" height="50" width="800" viewBox="0 0 800 50" preserveAspectRatio="none"  >
<g label="Query sequence" class="clusterblast-cluster"  >
<text x="5" y="20" class="clusterblast-acc"  >
Query sequence</text>
<line x1="10" y1="35" x2="778.0" y2="35" style="stroke-width:1; stroke:grey; "  />
<polygon points="0,35 5,30 34,30 34,40 5,40 0,35 " style="fill:white; stroke-width:1; stroke:black; " description="&lt;b&gt;ctg1_1855&lt;/b&gt;&lt;br&gt;ctg1 1855&lt;br&gt;Location: 2259923 - 2260817" locus_tag="ctg1_1855" class="clusterblast-orf" id="knownclusterblast-7_q0_0_all"  />
<polygon points="37,35 42,30 241,30 241,40 42,40 37,35 " style="fill:white; stroke-width:1; stroke:black; " description="&lt;b&gt;ctg1_1856&lt;/b&gt;&lt;br&gt;ctg1 1856&lt;br&gt;Location: 2260886 - 2266160" locus_tag="ctg1_1856" class="clusterblast-orf" id="knownclusterblast-7_q1_0_all"  />
<polygon points="247,35 252,30 288,30 288,40 252,40 247,35 " style="fill:white; stroke-width:1; stroke:black; " description="&lt;b&gt;ctg1_1857&lt;/b&gt;&lt;br&gt;ctg1 1857&lt;br&gt;Location: 2266326 - 2267382" locus_tag="ctg1_1857" class="clusterblast-orf" id="knownclusterblast-7_q2_0_all"  />
<polygon points="321,35 326,30 336,30 336,40 326,40 321,35 " style="fill:white; stroke-width:1; stroke:black; " description="&lt;b&gt;ctg1_1858&lt;/b&gt;&lt;br&gt;ctg1 1858&lt;br&gt;Location: 2268244 - 2268625" locus_tag="ctg1_1858" class="clusterblast-orf" id="knownclusterblast-7_q3_0_all"  />
<polygon points="338,35 343,30 348,30 348,40 343,40 338,35 " style="fill:white; stroke-width:1; stroke:black; " description="&lt;b&gt;ctg1_1859&lt;/b&gt;&lt;br&gt;ctg1 1859&lt;br&gt;Location: 2268672 - 2268939" locus_tag="ctg1_1859" class="clusterblast-orf" id="knownclusterblast-7_q4_0_all"  />
<polygon points="362,35 367,30 419,30 419,40 367,40 362,35 " style="fill:white; stroke-width:1; stroke:black; " description="&lt;b&gt;ctg1_1860&lt;/b&gt;&lt;br&gt;ctg1 1860&lt;br&gt;Location: 2269299 - 2270760" locus_tag="ctg1_1860" class="clusterblast-orf" id="knownclusterblast-7_q5_0_all"  />
<polygon points="437,35 442,30 446,30 446,40 442,40 437,35 " style="fill:white; stroke-width:1; stroke:black; " description="&lt;b&gt;ctg1_1861&lt;/b&gt;&lt;br&gt;ctg1 1861&lt;br&gt;Location: 2271243 - 2271480" locus_tag="ctg1_1861" class="clusterblast-orf" id="knownclusterblast-7_q6_0_all"  />
<polygon points="454,35 459,30 477,30 477,40 459,40 454,35 " style="fill:white; stroke-width:1; stroke:black; " description="&lt;b&gt;ctg1_1862&lt;/b&gt;&lt;br&gt;ctg1 1862&lt;br&gt;Location: 2271688 - 2272282" locus_tag="ctg1_1862" class="clusterblast-orf" id="knownclusterblast-7_q7_0_all"  />
<polygon points="476,35 481,30 510,30 510,40 481,40 476,35 " style="fill:white; stroke-width:1; stroke:black; " description="&lt;b&gt;ctg1_1863&lt;/b&gt;&lt;br&gt;ctg1 1863&lt;br&gt;Location: 2272254 - 2273115" locus_tag="ctg1_1863" class="clusterblast-orf" id="knownclusterblast-7_q8_0_all"  />
<polygon points="531,40 567,40 572,35 567,30 531,30 531,40 " style="fill:white; stroke-width:1; stroke:black; " description="&lt;b&gt;ctg1_1864&lt;/b&gt;&lt;br&gt;ctg1 1864&lt;br&gt;Location: 2273683 - 2274739" locus_tag="ctg1_1864" class="clusterblast-orf" id="knownclusterblast-7_q9_0_all"  />
<polygon points="575,35 580,30 600,30 600,40 580,40 575,35 " style="fill:white; stroke-width:1; stroke:black; " description="&lt;b&gt;ctg1_1865&lt;/b&gt;&lt;br&gt;ctg1 1865&lt;br&gt;Location: 2274812 - 2275469" locus_tag="ctg1_1865" class="clusterblast-orf" id="knownclusterblast-7_q10_0_all"  />
<polygon points="606,35 611,30 615,30 615,40 611,40 606,35 " style="fill:white; stroke-width:1; stroke:black; " description="&lt;b&gt;ctg1_1866&lt;/b&gt;&lt;br&gt;ctg1 1866&lt;br&gt;Location: 2275606 - 2275849" locus_tag="ctg1_1866" class="clusterblast-orf" id="knownclusterblast-7_q11_0_all"  />
<polygon points="621,40 667,40 672,35 667,30 621,30 621,40 " style="fill:white; stroke-width:1; stroke:black; " description="&lt;b&gt;ctg1_1867&lt;/b&gt;&lt;br&gt;ctg1 1867&lt;br&gt;Location: 2276002 - 2277325" locus_tag="ctg1_1867" class="clusterblast-orf" id="knownclusterblast-7_q12_0_all"  />
<polygon points="676,40 710,40 715,35 710,30 676,30 676,40 " style="fill:white; stroke-width:1; stroke:black; " description="&lt;b&gt;ctg1_1868&lt;/b&gt;&lt;br&gt;ctg1 1868&lt;br&gt;Location: 2277426 - 2278437" locus_tag="ctg1_1868" class="clusterblast-orf" id="knownclusterblast-7_q13_0_all"  />
<polygon points="715,40 738,40 743,35 738,30 715,30 715,40 " style="fill:white; stroke-width:1; stroke:black; " description="&lt;b&gt;ctg1_1869&lt;/b&gt;&lt;br&gt;ctg1 1869&lt;br&gt;Location: 2278437 - 2279166" locus_tag="ctg1_1869" class="clusterblast-orf" id="knownclusterblast-7_q14_0_all"  />
<polygon points="743,35 748,30 780,30 780,40 748,40 743,35 " style="fill:white; stroke-width:1; stroke:black; " description="&lt;b&gt;ctg1_1870&lt;/b&gt;&lt;br&gt;ctg1 1870&lt;br&gt;Location: 2279148 - 2280114" locus_tag="ctg1_1870" class="clusterblast-orf" id="knownclusterblast-7_q15_0_all"  />
</g>
</svg>
