<svg xmlns="http://www.w3.org/2000/svg" xmlns:xlink="http://www.w3.org/1999/xlink" version="1.1" x="0" y="0" height="50" width="800" viewBox="0 0 800 50" preserveAspectRatio="none"  >
<g label="Query sequence" class="clusterblast-cluster"  >
<text x="5" y="20" class="clusterblast-acc"  >
Query sequence</text>
<line x1="10" y1="35" x2="778.0" y2="35" style="stroke-width:1; stroke:grey; "  />
<polygon points="0,40 123,40 128,35 123,30 0,30 0,40 " style="fill:white; stroke-width:1; stroke:black; " description="&lt;b&gt;ctg1_3157&lt;/b&gt;&lt;br&gt;ctg1 3157&lt;br&gt;Location: 3826434 - 3829371" locus_tag="ctg1_3157" class="clusterblast-orf" id="knownclusterblast-8_q0_0_all"  />
<polygon points="143,40 144,40 149,35 144,30 143,30 143,40 " style="fill:white; stroke-width:1; stroke:black; " description="&lt;b&gt;ctg1_3158&lt;/b&gt;&lt;br&gt;ctg1 3158&lt;br&gt;Location: 3829725 - 3829857" locus_tag="ctg1_3158" class="clusterblast-orf" id="knownclusterblast-8_q1_0_all"  />
<polygon points="161,40 202,40 207,35 202,30 161,30 161,40 " style="fill:white; stroke-width:1; stroke:black; " description="&lt;b&gt;ctg1_3159&lt;/b&gt;&lt;br&gt;ctg1 3159&lt;br&gt;Location: 3830138 - 3831179" locus_tag="ctg1_3159" class="clusterblast-orf" id="knownclusterblast-8_q2_0_all"  />
<polygon points="208,35 213,30 254,30 254,40 213,40 208,35 " style="fill:white; stroke-width:1; stroke:black; " description="&lt;b&gt;ctg1_3160&lt;/b&gt;&lt;br&gt;ctg1 3160&lt;br&gt;Location: 3831213 - 3832266" locus_tag="ctg1_3160" class="clusterblast-orf" id="knownclusterblast-8_q3_0_all"  />
<polygon points="267,35 272,30 329,30 329,40 272,40 267,35 " style="fill:white; stroke-width:1; stroke:black; " description="&lt;b&gt;ctg1_3161&lt;/b&gt;&lt;br&gt;ctg1 3161&lt;br&gt;Location: 3832570 - 3833989" locus_tag="ctg1_3161" class="clusterblast-orf" id="knownclusterblast-8_q4_0_all"  />
<polygon points="334,35 339,30 399,30 399,40 339,40 334,35 " style="fill:white; stroke-width:1; stroke:black; " description="&lt;b&gt;ctg1_3162&lt;/b&gt;&lt;br&gt;ctg1 3162&lt;br&gt;Location: 3834112 - 3835603" locus_tag="ctg1_3162" class="clusterblast-orf" id="knownclusterblast-8_q5_0_all"  />
<polygon points="420,35 425,30 431,30 431,40 425,40 420,35 " style="fill:white; stroke-width:1; stroke:black; " description="&lt;b&gt;ctg1_3163&lt;/b&gt;&lt;br&gt;ctg1 3163&lt;br&gt;Location: 3836086 - 3836323" locus_tag="ctg1_3163" class="clusterblast-orf" id="knownclusterblast-8_q6_0_all"  />
<polygon points="440,35 445,30 496,30 496,40 445,40 440,35 " style="fill:white; stroke-width:1; stroke:black; " description="&lt;b&gt;ctg1_3164&lt;/b&gt;&lt;br&gt;ctg1 3164&lt;br&gt;Location: 3836531 - 3837818" locus_tag="ctg1_3164" class="clusterblast-orf" id="knownclusterblast-8_q7_0_all"  />
<polygon points="526,40 567,40 572,35 567,30 526,30 526,40 " style="fill:white; stroke-width:1; stroke:black; " description="&lt;b&gt;ctg1_3165&lt;/b&gt;&lt;br&gt;ctg1 3165&lt;br&gt;Location: 3838499 - 3839555" locus_tag="ctg1_3165" class="clusterblast-orf" id="knownclusterblast-8_q8_0_all"  />
<polygon points="575,35 580,30 603,30 603,40 580,40 575,35 " style="fill:white; stroke-width:1; stroke:black; " description="&lt;b&gt;ctg1_3166&lt;/b&gt;&lt;br&gt;ctg1 3166&lt;br&gt;Location: 3839628 - 3840285" locus_tag="ctg1_3166" class="clusterblast-orf" id="knownclusterblast-8_q9_0_all"  />
<polygon points="609,35 614,30 620,30 620,40 614,40 609,35 " style="fill:white; stroke-width:1; stroke:black; " description="&lt;b&gt;ctg1_3167&lt;/b&gt;&lt;br&gt;ctg1 3167&lt;br&gt;Location: 3840422 - 3840665" locus_tag="ctg1_3167" class="clusterblast-orf" id="knownclusterblast-8_q10_0_all"  />
<polygon points="633,40 679,40 684,35 679,30 633,30 633,40 " style="fill:white; stroke-width:1; stroke:black; " description="&lt;b&gt;ctg1_3168&lt;/b&gt;&lt;br&gt;ctg1 3168&lt;br&gt;Location: 3840957 - 3842142" locus_tag="ctg1_3168" class="clusterblast-orf" id="knownclusterblast-8_q11_0_all"  />
<polygon points="676,35 681,30 719,30 719,40 681,40 676,35 " style="fill:white; stroke-width:1; stroke:black; " description="&lt;b&gt;ctg1_3169&lt;/b&gt;&lt;br&gt;ctg1 3169&lt;br&gt;Location: 3841943 - 3842936" locus_tag="ctg1_3169" class="clusterblast-orf" id="knownclusterblast-8_q12_0_all"  />
<polygon points="721,35 726,30 780,30 780,40 726,40 721,35 " style="fill:white; stroke-width:1; stroke:black; " description="&lt;b&gt;ctg1_3170&lt;/b&gt;&lt;br&gt;ctg1 3170&lt;br&gt;Location: 3842981 - 3844337" locus_tag="ctg1_3170" class="clusterblast-orf" id="knownclusterblast-8_q13_0_all"  />
</g>
</svg>
