<svg xmlns="http://www.w3.org/2000/svg" xmlns:xlink="http://www.w3.org/1999/xlink" version="1.1" x="0" y="0" height="50" width="800" viewBox="0 0 800 50" preserveAspectRatio="none"  >
<g label="Query sequence" class="clusterblast-cluster"  >
<text x="5" y="20" class="clusterblast-acc"  >
Query sequence</text>
<line x1="10" y1="35" x2="778.0" y2="35" style="stroke-width:1; stroke:grey; "  />
<polygon points="0,35 5,30 58,30 58,40 5,40 0,35 " style="fill:white; stroke-width:1; stroke:black; " description="&lt;b&gt;ctg1_1147&lt;/b&gt;&lt;br&gt;ctg1 1147&lt;br&gt;Location: 1393520 - 1394918" locus_tag="ctg1_1147" class="clusterblast-orf" id="knownclusterblast-5_q0_0_all"  />
<polygon points="57,35 62,30 85,30 85,40 62,40 57,35 " style="fill:white; stroke-width:1; stroke:black; " description="&lt;b&gt;ctg1_1148&lt;/b&gt;&lt;br&gt;ctg1 1148&lt;br&gt;Location: 1394914 - 1395580" locus_tag="ctg1_1148" class="clusterblast-orf" id="knownclusterblast-5_q1_0_all"  />
<polygon points="85,40 201,40 206,35 201,30 85,30 85,40 " style="fill:white; stroke-width:1; stroke:black; " description="&lt;b&gt;ctg1_1149&lt;/b&gt;&lt;br&gt;ctg1 1149&lt;br&gt;Location: 1395580 - 1398517" locus_tag="ctg1_1149" class="clusterblast-orf" id="knownclusterblast-5_q2_0_all"  />
<polygon points="221,40 221,40 226,35 221,30 221,30 221,40 " style="fill:white; stroke-width:1; stroke:black; " description="&lt;b&gt;ctg1_1150&lt;/b&gt;&lt;br&gt;ctg1 1150&lt;br&gt;Location: 1398871 - 1399003" locus_tag="ctg1_1150" class="clusterblast-orf" id="knownclusterblast-5_q3_0_all"  />
<polygon points="238,40 276,40 281,35 276,30 238,30 238,40 " style="fill:white; stroke-width:1; stroke:black; " description="&lt;b&gt;ctg1_1151&lt;/b&gt;&lt;br&gt;ctg1 1151&lt;br&gt;Location: 1399284 - 1400325" locus_tag="ctg1_1151" class="clusterblast-orf" id="knownclusterblast-5_q4_0_all"  />
<polygon points="282,35 287,30 325,30 325,40 287,40 282,35 " style="fill:white; stroke-width:1; stroke:black; " description="&lt;b&gt;ctg1_1152&lt;/b&gt;&lt;br&gt;ctg1 1152&lt;br&gt;Location: 1400359 - 1401412" locus_tag="ctg1_1152" class="clusterblast-orf" id="knownclusterblast-5_q5_0_all"  />
<polygon points="338,35 343,30 397,30 397,40 343,40 338,35 " style="fill:white; stroke-width:1; stroke:black; " description="&lt;b&gt;ctg1_1153&lt;/b&gt;&lt;br&gt;ctg1 1153&lt;br&gt;Location: 1401716 - 1403135" locus_tag="ctg1_1153" class="clusterblast-orf" id="knownclusterblast-5_q6_0_all"  />
<polygon points="402,35 407,30 463,30 463,40 407,40 402,35 " style="fill:white; stroke-width:1; stroke:black; " description="&lt;b&gt;ctg1_1154&lt;/b&gt;&lt;br&gt;ctg1 1154&lt;br&gt;Location: 1403258 - 1404749" locus_tag="ctg1_1154" class="clusterblast-orf" id="knownclusterblast-5_q7_0_all"  />
<polygon points="483,35 488,30 493,30 493,40 488,40 483,35 " style="fill:white; stroke-width:1; stroke:black; " description="&lt;b&gt;ctg1_1155&lt;/b&gt;&lt;br&gt;ctg1 1155&lt;br&gt;Location: 1405232 - 1405469" locus_tag="ctg1_1155" class="clusterblast-orf" id="knownclusterblast-5_q8_0_all"  />
<polygon points="501,35 506,30 526,30 526,40 506,40 501,35 " style="fill:white; stroke-width:1; stroke:black; " description="&lt;b&gt;ctg1_1156&lt;/b&gt;&lt;br&gt;ctg1 1156&lt;br&gt;Location: 1405677 - 1406271" locus_tag="ctg1_1156" class="clusterblast-orf" id="knownclusterblast-5_q9_0_all"  />
<polygon points="525,35 530,30 560,30 560,40 530,40 525,35 " style="fill:white; stroke-width:1; stroke:black; " description="&lt;b&gt;ctg1_1157&lt;/b&gt;&lt;br&gt;ctg1 1157&lt;br&gt;Location: 1406243 - 1407104" locus_tag="ctg1_1157" class="clusterblast-orf" id="knownclusterblast-5_q10_0_all"  />
<polygon points="584,40 622,40 627,35 622,30 584,30 584,40 " style="fill:white; stroke-width:1; stroke:black; " description="&lt;b&gt;ctg1_1158&lt;/b&gt;&lt;br&gt;ctg1 1158&lt;br&gt;Location: 1407672 - 1408728" locus_tag="ctg1_1158" class="clusterblast-orf" id="knownclusterblast-5_q11_0_all"  />
<polygon points="630,35 635,30 657,30 657,40 635,40 630,35 " style="fill:white; stroke-width:1; stroke:black; " description="&lt;b&gt;ctg1_1159&lt;/b&gt;&lt;br&gt;ctg1 1159&lt;br&gt;Location: 1408801 - 1409458" locus_tag="ctg1_1159" class="clusterblast-orf" id="knownclusterblast-5_q12_0_all"  />
<polygon points="663,35 668,30 673,30 673,40 668,40 663,35 " style="fill:white; stroke-width:1; stroke:black; " description="&lt;b&gt;ctg1_1160&lt;/b&gt;&lt;br&gt;ctg1 1160&lt;br&gt;Location: 1409595 - 1409838" locus_tag="ctg1_1160" class="clusterblast-orf" id="knownclusterblast-5_q13_0_all"  />
<polygon points="685,40 729,40 734,35 729,30 685,30 685,40 " style="fill:white; stroke-width:1; stroke:black; " description="&lt;b&gt;ctg1_1161&lt;/b&gt;&lt;br&gt;ctg1 1161&lt;br&gt;Location: 1410130 - 1411315" locus_tag="ctg1_1161" class="clusterblast-orf" id="knownclusterblast-5_q14_0_all"  />
<polygon points="738,40 775,40 780,35 775,30 738,30 738,40 " style="fill:white; stroke-width:1; stroke:black; " description="&lt;b&gt;ctg1_1162&lt;/b&gt;&lt;br&gt;ctg1 1162&lt;br&gt;Location: 1411417 - 1412428" locus_tag="ctg1_1162" class="clusterblast-orf" id="knownclusterblast-5_q15_0_all"  />
</g>
</svg>
