<svg xmlns="http://www.w3.org/2000/svg" xmlns:xlink="http://www.w3.org/1999/xlink" version="1.1" x="0" y="0" height="50" width="800" viewBox="0 0 800 50" preserveAspectRatio="none"  >
<g label="Query sequence" class="clusterblast-cluster"  >
<text x="5" y="20" class="clusterblast-acc"  >
Query sequence</text>
<line x1="10" y1="35" x2="778.0" y2="35" style="stroke-width:1; stroke:grey; "  />
<polygon points="0,35 5,30 63,30 63,40 5,40 0,35 " style="fill:white; stroke-width:1; stroke:black; " description="&lt;b&gt;ctg1_720&lt;/b&gt;&lt;br&gt;ctg1 720&lt;br&gt;Location: 888172 - 889816" locus_tag="ctg1_720" class="clusterblast-orf" id="knownclusterblast-2_q0_0_all"  />
<polygon points="63,40 92,40 97,35 92,30 63,30 63,40 " style="fill:white; stroke-width:1; stroke:black; " description="&lt;b&gt;ctg1_721&lt;/b&gt;&lt;br&gt;ctg1 721&lt;br&gt;Location: 889816 - 890674" locus_tag="ctg1_721" class="clusterblast-orf" id="knownclusterblast-2_q1_0_all"  />
<polygon points="95,35 100,30 111,30 111,40 100,40 95,35 " style="fill:white; stroke-width:1; stroke:black; " description="&lt;b&gt;ctg1_722&lt;/b&gt;&lt;br&gt;ctg1 722&lt;br&gt;Location: 890635 - 891049" locus_tag="ctg1_722" class="clusterblast-orf" id="knownclusterblast-2_q2_0_all"  />
<polygon points="118,35 123,30 148,30 148,40 123,40 118,35 " style="fill:white; stroke-width:1; stroke:black; " description="&lt;b&gt;ctg1_723&lt;/b&gt;&lt;br&gt;ctg1 723&lt;br&gt;Location: 891219 - 891996" locus_tag="ctg1_723" class="clusterblast-orf" id="knownclusterblast-2_q3_0_all"  />
<polygon points="160,40 181,40 186,35 181,30 160,30 160,40 " style="fill:white; stroke-width:1; stroke:black; " description="&lt;b&gt;ctg1_724&lt;/b&gt;&lt;br&gt;ctg1 724&lt;br&gt;Location: 892314 - 892974" locus_tag="ctg1_724" class="clusterblast-orf" id="knownclusterblast-2_q4_0_all"  />
<polygon points="205,40 241,40 246,35 241,30 205,30 205,40 " style="fill:white; stroke-width:1; stroke:black; " description="&lt;b&gt;ctg1_725&lt;/b&gt;&lt;br&gt;ctg1 725&lt;br&gt;Location: 893485 - 894541" locus_tag="ctg1_725" class="clusterblast-orf" id="knownclusterblast-2_q5_0_all"  />
<polygon points="249,35 254,30 258,30 258,40 254,40 249,35 " style="fill:white; stroke-width:1; stroke:black; " description="&lt;b&gt;ctg1_726&lt;/b&gt;&lt;br&gt;ctg1 726&lt;br&gt;Location: 894603 - 894846" locus_tag="ctg1_726" class="clusterblast-orf" id="knownclusterblast-2_q6_0_all"  />
<polygon points="262,35 267,30 318,30 318,40 267,40 262,35 " style="fill:white; stroke-width:1; stroke:black; " description="&lt;b&gt;ctg1_727&lt;/b&gt;&lt;br&gt;ctg1 727&lt;br&gt;Location: 894944 - 896390" locus_tag="ctg1_727" class="clusterblast-orf" id="knownclusterblast-2_q7_0_all"  />
<polygon points="322,35 327,30 337,30 337,40 327,40 322,35 " style="fill:white; stroke-width:1; stroke:black; " description="&lt;b&gt;ctg1_728&lt;/b&gt;&lt;br&gt;ctg1 728&lt;br&gt;Location: 896500 - 896878" locus_tag="ctg1_728" class="clusterblast-orf" id="knownclusterblast-2_q8_0_all"  />
<polygon points="343,35 348,30 429,30 429,40 348,40 343,35 " style="fill:white; stroke-width:1; stroke:black; " description="&lt;b&gt;ctg1_729&lt;/b&gt;&lt;br&gt;ctg1 729&lt;br&gt;Location: 897037 - 899272" locus_tag="ctg1_729" class="clusterblast-orf" id="knownclusterblast-2_q9_0_all"  />
<polygon points="448,35 453,30 457,30 457,40 453,40 448,35 " style="fill:white; stroke-width:1; stroke:black; " description="&lt;b&gt;ctg1_730&lt;/b&gt;&lt;br&gt;ctg1 730&lt;br&gt;Location: 899755 - 899992" locus_tag="ctg1_730" class="clusterblast-orf" id="knownclusterblast-2_q10_0_all"  />
<polygon points="465,35 470,30 515,30 515,40 470,40 465,35 " style="fill:white; stroke-width:1; stroke:black; " description="&lt;b&gt;ctg1_731&lt;/b&gt;&lt;br&gt;ctg1 731&lt;br&gt;Location: 900200 - 901487" locus_tag="ctg1_731" class="clusterblast-orf" id="knownclusterblast-2_q11_0_all"  />
<polygon points="541,40 577,40 582,35 577,30 541,30 541,40 " style="fill:white; stroke-width:1; stroke:black; " description="&lt;b&gt;ctg1_732&lt;/b&gt;&lt;br&gt;ctg1 732&lt;br&gt;Location: 902168 - 903224" locus_tag="ctg1_732" class="clusterblast-orf" id="knownclusterblast-2_q12_0_all"  />
<polygon points="585,35 590,30 610,30 610,40 590,40 585,35 " style="fill:white; stroke-width:1; stroke:black; " description="&lt;b&gt;ctg1_733&lt;/b&gt;&lt;br&gt;ctg1 733&lt;br&gt;Location: 903297 - 903954" locus_tag="ctg1_733" class="clusterblast-orf" id="knownclusterblast-2_q13_0_all"  />
<polygon points="616,35 621,30 625,30 625,40 621,40 616,35 " style="fill:white; stroke-width:1; stroke:black; " description="&lt;b&gt;ctg1_734&lt;/b&gt;&lt;br&gt;ctg1 734&lt;br&gt;Location: 904091 - 904334" locus_tag="ctg1_734" class="clusterblast-orf" id="knownclusterblast-2_q14_0_all"  />
<polygon points="636,40 677,40 682,35 677,30 636,30 636,40 " style="fill:white; stroke-width:1; stroke:black; " description="&lt;b&gt;ctg1_735&lt;/b&gt;&lt;br&gt;ctg1 735&lt;br&gt;Location: 904626 - 905811" locus_tag="ctg1_735" class="clusterblast-orf" id="knownclusterblast-2_q15_0_all"  />
<polygon points="686,40 720,40 725,35 720,30 686,30 686,40 " style="fill:white; stroke-width:1; stroke:black; " description="&lt;b&gt;ctg1_736&lt;/b&gt;&lt;br&gt;ctg1 736&lt;br&gt;Location: 905912 - 906923" locus_tag="ctg1_736" class="clusterblast-orf" id="knownclusterblast-2_q16_0_all"  />
<polygon points="725,40 758,40 763,35 758,30 725,30 725,40 " style="fill:white; stroke-width:1; stroke:black; " description="&lt;b&gt;ctg1_737&lt;/b&gt;&lt;br&gt;ctg1 737&lt;br&gt;Location: 906923 - 907907" locus_tag="ctg1_737" class="clusterblast-orf" id="knownclusterblast-2_q17_0_all"  />
<polygon points="765,40 775,40 780,35 775,30 765,30 765,40 " style="fill:white; stroke-width:1; stroke:black; " description="&lt;b&gt;ctg1_738&lt;/b&gt;&lt;br&gt;ctg1 738&lt;br&gt;Location: 907943 - 908339" locus_tag="ctg1_738" class="clusterblast-orf" id="knownclusterblast-2_q18_0_all"  />
</g>
</svg>
