<svg xmlns="http://www.w3.org/2000/svg" xmlns:xlink="http://www.w3.org/1999/xlink" version="1.1" x="0" y="0" height="50" width="800" viewBox="0 0 800 50" preserveAspectRatio="none"  >
<g label="Query sequence" class="clusterblast-cluster"  >
<text x="5" y="20" class="clusterblast-acc"  >
Query sequence</text>
<line x1="10" y1="35" x2="778.0" y2="35" style="stroke-width:1; stroke:grey; "  />
<polygon points="0,35 5,30 58,30 58,40 5,40 0,35 " style="fill:white; stroke-width:1; stroke:black; " description="&lt;b&gt;ctg1_1485&lt;/b&gt;&lt;br&gt;ctg1 1485&lt;br&gt;Location: 1789570 - 1790989" locus_tag="ctg1_1485" class="clusterblast-orf" id="knownclusterblast-6_q0_0_all"  />
<polygon points="63,35 68,30 119,30 119,40 68,40 63,35 " style="fill:white; stroke-width:1; stroke:black; " description="&lt;b&gt;ctg1_1486&lt;/b&gt;&lt;br&gt;ctg1 1486&lt;br&gt;Location: 1791111 - 1792482" locus_tag="ctg1_1486" class="clusterblast-orf" id="knownclusterblast-6_q1_0_all"  />
<polygon points="120,35 125,30 174,30 174,40 125,40 120,35 " style="fill:white; stroke-width:1; stroke:black; " description="&lt;b&gt;ctg1_1487&lt;/b&gt;&lt;br&gt;ctg1 1487&lt;br&gt;Location: 1792504 - 1793845" locus_tag="ctg1_1487" class="clusterblast-orf" id="knownclusterblast-6_q2_0_all"  />
<polygon points="205,40 243,40 248,35 243,30 205,30 205,40 " style="fill:white; stroke-width:1; stroke:black; " description="&lt;b&gt;ctg1_1488&lt;/b&gt;&lt;br&gt;ctg1 1488&lt;br&gt;Location: 1794613 - 1795660" locus_tag="ctg1_1488" class="clusterblast-orf" id="knownclusterblast-6_q3_0_all"  />
<polygon points="253,35 258,30 292,30 292,40 258,40 253,35 " style="fill:white; stroke-width:1; stroke:black; " description="&lt;b&gt;ctg1_1489&lt;/b&gt;&lt;br&gt;ctg1 1489&lt;br&gt;Location: 1795769 - 1796723" locus_tag="ctg1_1489" class="clusterblast-orf" id="knownclusterblast-6_q4_0_all"  />
<polygon points="301,35 306,30 333,30 333,40 306,40 301,35 " style="fill:white; stroke-width:1; stroke:black; " description="&lt;b&gt;ctg1_1490&lt;/b&gt;&lt;br&gt;ctg1 1490&lt;br&gt;Location: 1796956 - 1797733" locus_tag="ctg1_1490" class="clusterblast-orf" id="knownclusterblast-6_q5_0_all"  />
<polygon points="333,35 338,30 354,30 354,40 338,40 333,35 " style="fill:white; stroke-width:1; stroke:black; " description="&lt;b&gt;ctg1_1491&lt;/b&gt;&lt;br&gt;ctg1 1491&lt;br&gt;Location: 1797729 - 1798266" locus_tag="ctg1_1491" class="clusterblast-orf" id="knownclusterblast-6_q6_0_all"  />
<polygon points="360,35 365,30 378,30 378,40 365,40 360,35 " style="fill:white; stroke-width:1; stroke:black; " description="&lt;b&gt;ctg1_1492&lt;/b&gt;&lt;br&gt;ctg1 1492&lt;br&gt;Location: 1798393 - 1798855" locus_tag="ctg1_1492" class="clusterblast-orf" id="knownclusterblast-6_q7_0_all"  />
<polygon points="378,35 383,30 425,30 425,40 383,40 378,35 " style="fill:white; stroke-width:1; stroke:black; " description="&lt;b&gt;ctg1_1493&lt;/b&gt;&lt;br&gt;ctg1 1493&lt;br&gt;Location: 1798838 - 1799993" locus_tag="ctg1_1493" class="clusterblast-orf" id="knownclusterblast-6_q8_0_all"  />
<polygon points="445,35 450,30 454,30 454,40 450,40 445,35 " style="fill:white; stroke-width:1; stroke:black; " description="&lt;b&gt;ctg1_1494&lt;/b&gt;&lt;br&gt;ctg1 1494&lt;br&gt;Location: 1800476 - 1800713" locus_tag="ctg1_1494" class="clusterblast-orf" id="knownclusterblast-6_q9_0_all"  />
<polygon points="463,35 468,30 515,30 515,40 468,40 463,35 " style="fill:white; stroke-width:1; stroke:black; " description="&lt;b&gt;ctg1_1495&lt;/b&gt;&lt;br&gt;ctg1 1495&lt;br&gt;Location: 1800921 - 1802208" locus_tag="ctg1_1495" class="clusterblast-orf" id="knownclusterblast-6_q10_0_all"  />
<polygon points="543,40 581,40 586,35 581,30 543,30 543,40 " style="fill:white; stroke-width:1; stroke:black; " description="&lt;b&gt;ctg1_1496&lt;/b&gt;&lt;br&gt;ctg1 1496&lt;br&gt;Location: 1802889 - 1803945" locus_tag="ctg1_1496" class="clusterblast-orf" id="knownclusterblast-6_q11_0_all"  />
<polygon points="589,35 594,30 616,30 616,40 594,40 589,35 " style="fill:white; stroke-width:1; stroke:black; " description="&lt;b&gt;ctg1_1497&lt;/b&gt;&lt;br&gt;ctg1 1497&lt;br&gt;Location: 1804018 - 1804675" locus_tag="ctg1_1497" class="clusterblast-orf" id="knownclusterblast-6_q12_0_all"  />
<polygon points="621,35 626,30 631,30 631,40 626,40 621,35 " style="fill:white; stroke-width:1; stroke:black; " description="&lt;b&gt;ctg1_1498&lt;/b&gt;&lt;br&gt;ctg1 1498&lt;br&gt;Location: 1804812 - 1805055" locus_tag="ctg1_1498" class="clusterblast-orf" id="knownclusterblast-6_q13_0_all"  />
<polygon points="643,40 686,40 691,35 686,30 643,30 643,40 " style="fill:white; stroke-width:1; stroke:black; " description="&lt;b&gt;ctg1_1499&lt;/b&gt;&lt;br&gt;ctg1 1499&lt;br&gt;Location: 1805347 - 1806532" locus_tag="ctg1_1499" class="clusterblast-orf" id="knownclusterblast-6_q14_0_all"  />
<polygon points="696,40 732,40 737,35 732,30 696,30 696,40 " style="fill:white; stroke-width:1; stroke:black; " description="&lt;b&gt;ctg1_1500&lt;/b&gt;&lt;br&gt;ctg1 1500&lt;br&gt;Location: 1806633 - 1807644" locus_tag="ctg1_1500" class="clusterblast-orf" id="knownclusterblast-6_q15_0_all"  />
<polygon points="738,40 748,40 753,35 748,30 738,30 738,40 " style="fill:white; stroke-width:1; stroke:black; " description="&lt;b&gt;ctg1_1501&lt;/b&gt;&lt;br&gt;ctg1 1501&lt;br&gt;Location: 1807678 - 1808050" locus_tag="ctg1_1501" class="clusterblast-orf" id="knownclusterblast-6_q16_0_all"  />
<polygon points="755,40 775,40 780,35 775,30 755,30 755,40 " style="fill:white; stroke-width:1; stroke:black; " description="&lt;b&gt;ctg1_1502&lt;/b&gt;&lt;br&gt;ctg1 1502&lt;br&gt;Location: 1808094 - 1808703" locus_tag="ctg1_1502" class="clusterblast-orf" id="knownclusterblast-6_q17_0_all"  />
</g>
</svg>
