<svg xmlns="http://www.w3.org/2000/svg" xmlns:xlink="http://www.w3.org/1999/xlink" version="1.1" x="0" y="0" height="50" width="800" viewBox="0 0 800 50" preserveAspectRatio="none"  >
<g label="Query sequence" class="clusterblast-cluster"  >
<text x="5" y="20" class="clusterblast-acc"  >
Query sequence</text>
<line x1="10" y1="35" x2="778.0" y2="35" style="stroke-width:1; stroke:grey; "  />
<polygon points="0,35 5,30 39,30 39,40 5,40 0,35 " style="fill:white; stroke-width:1; stroke:black; " description="&lt;b&gt;ctg1_196&lt;/b&gt;&lt;br&gt;ctg1 196&lt;br&gt;Location: 241425 - 242466" locus_tag="ctg1_196" class="clusterblast-orf" id="subclusterblast-1_q0_0_all"  />
<polygon points="78,35 83,30 118,30 118,40 83,40 78,35 " style="fill:white; stroke-width:1; stroke:black; " description="&lt;b&gt;ctg1_197&lt;/b&gt;&lt;br&gt;ctg1 197&lt;br&gt;Location: 243512 - 244571" locus_tag="ctg1_197" class="clusterblast-orf" id="subclusterblast-1_q1_0_all"  />
<polygon points="127,40 163,40 168,35 163,30 127,30 127,40 " style="fill:white; stroke-width:1; stroke:black; " description="&lt;b&gt;ctg1_198&lt;/b&gt;&lt;br&gt;ctg1 198&lt;br&gt;Location: 244806 - 245889" locus_tag="ctg1_198" class="clusterblast-orf" id="subclusterblast-1_q2_0_all"  />
<polygon points="168,40 216,40 221,35 216,30 168,30 168,40 " style="fill:white; stroke-width:1; stroke:black; " description="&lt;b&gt;ctg1_199&lt;/b&gt;&lt;br&gt;ctg1 199&lt;br&gt;Location: 245889 - 247308" locus_tag="ctg1_199" class="clusterblast-orf" id="subclusterblast-1_q3_0_all"  />
<polygon points="233,40 267,40 272,35 267,30 233,30 233,40 " style="fill:white; stroke-width:1; stroke:black; " description="&lt;b&gt;ctg1_200&lt;/b&gt;&lt;br&gt;ctg1 200&lt;br&gt;Location: 247612 - 248665" locus_tag="ctg1_200" class="clusterblast-orf" id="subclusterblast-1_q4_0_all"  />
<polygon points="274,35 279,30 313,30 313,40 279,40 274,35 " style="fill:white; stroke-width:1; stroke:black; " description="&lt;b&gt;ctg1_201&lt;/b&gt;&lt;br&gt;ctg1 201&lt;br&gt;Location: 248699 - 249740" locus_tag="ctg1_201" class="clusterblast-orf" id="subclusterblast-1_q5_0_all"  />
<polygon points="323,35 328,30 328,30 328,40 328,40 323,35 " style="fill:white; stroke-width:1; stroke:black; " description="&lt;b&gt;ctg1_202&lt;/b&gt;&lt;br&gt;ctg1 202&lt;br&gt;Location: 250021 - 250153" locus_tag="ctg1_202" class="clusterblast-orf" id="subclusterblast-1_q6_0_all"  />
<polygon points="342,35 347,30 492,30 492,40 347,40 342,35 " style="fill:white; stroke-width:1; stroke:black; " description="&lt;b&gt;ctg1_203&lt;/b&gt;&lt;br&gt;ctg1 203&lt;br&gt;Location: 250507 - 254503" locus_tag="ctg1_203" class="clusterblast-orf" id="subclusterblast-1_q7_0_all"  />
<polygon points="510,35 515,30 519,30 519,40 515,40 510,35 " style="fill:white; stroke-width:1; stroke:black; " description="&lt;b&gt;ctg1_204&lt;/b&gt;&lt;br&gt;ctg1 204&lt;br&gt;Location: 254983 - 255220" locus_tag="ctg1_204" class="clusterblast-orf" id="subclusterblast-1_q8_0_all"  />
<polygon points="527,35 532,30 581,30 581,40 532,40 527,35 " style="fill:white; stroke-width:1; stroke:black; " description="&lt;b&gt;ctg1_205&lt;/b&gt;&lt;br&gt;ctg1 205&lt;br&gt;Location: 255427 - 256870" locus_tag="ctg1_205" class="clusterblast-orf" id="subclusterblast-1_q9_0_all"  />
<polygon points="601,40 636,40 641,35 636,30 601,30 601,40 " style="fill:white; stroke-width:1; stroke:black; " description="&lt;b&gt;ctg1_206&lt;/b&gt;&lt;br&gt;ctg1 206&lt;br&gt;Location: 257393 - 258458" locus_tag="ctg1_206" class="clusterblast-orf" id="subclusterblast-1_q10_0_all"  />
<polygon points="644,35 649,30 668,30 668,40 649,40 644,35 " style="fill:white; stroke-width:1; stroke:black; " description="&lt;b&gt;ctg1_207&lt;/b&gt;&lt;br&gt;ctg1 207&lt;br&gt;Location: 258531 - 259188" locus_tag="ctg1_207" class="clusterblast-orf" id="subclusterblast-1_q11_0_all"  />
<polygon points="673,35 678,30 682,30 682,40 678,40 673,35 " style="fill:white; stroke-width:1; stroke:black; " description="&lt;b&gt;ctg1_208&lt;/b&gt;&lt;br&gt;ctg1 208&lt;br&gt;Location: 259325 - 259565" locus_tag="ctg1_208" class="clusterblast-orf" id="subclusterblast-1_q12_0_all"  />
<polygon points="693,40 733,40 738,35 733,30 693,30 693,40 " style="fill:white; stroke-width:1; stroke:black; " description="&lt;b&gt;ctg1_209&lt;/b&gt;&lt;br&gt;ctg1 209&lt;br&gt;Location: 259848 - 261042" locus_tag="ctg1_209" class="clusterblast-orf" id="subclusterblast-1_q13_0_all"  />
<polygon points="743,40 775,40 780,35 775,30 743,30 743,40 " style="fill:white; stroke-width:1; stroke:black; " description="&lt;b&gt;ctg1_210&lt;/b&gt;&lt;br&gt;ctg1 210&lt;br&gt;Location: 261176 - 262154" locus_tag="ctg1_210" class="clusterblast-orf" id="subclusterblast-1_q14_0_all"  />
</g>
</svg>
