<svg xmlns="http://www.w3.org/2000/svg" xmlns:xlink="http://www.w3.org/1999/xlink" version="1.1" x="0" y="0" height="50" width="800" viewBox="0 0 800 50" preserveAspectRatio="none"  >
<g label="Query sequence" class="clusterblast-cluster"  >
<text x="5" y="20" class="clusterblast-acc"  >
Query sequence</text>
<line x1="10" y1="35" x2="778.0" y2="35" style="stroke-width:1; stroke:grey; "  />
<polygon points="0,35 5,30 44,30 44,40 5,40 0,35 " style="fill:white; stroke-width:1; stroke:black; " description="&lt;b&gt;ctg1_890&lt;/b&gt;&lt;br&gt;ctg1 890&lt;br&gt;Location: 1092258 - 1093311" locus_tag="ctg1_890" class="clusterblast-orf" id="subclusterblast-4_q0_0_all"  />
<polygon points="47,35 52,30 107,30 107,40 52,40 47,35 " style="fill:white; stroke-width:1; stroke:black; " description="&lt;b&gt;ctg1_891&lt;/b&gt;&lt;br&gt;ctg1 891&lt;br&gt;Location: 1093363 - 1094782" locus_tag="ctg1_891" class="clusterblast-orf" id="subclusterblast-4_q1_0_all"  />
<polygon points="113,35 118,30 131,30 131,40 118,40 113,35 " style="fill:white; stroke-width:1; stroke:black; " description="&lt;b&gt;ctg1_892&lt;/b&gt;&lt;br&gt;ctg1 892&lt;br&gt;Location: 1094933 - 1095359" locus_tag="ctg1_892" class="clusterblast-orf" id="subclusterblast-4_q2_0_all"  />
<polygon points="131,40 175,40 180,35 175,30 131,30 131,40 " style="fill:white; stroke-width:1; stroke:black; " description="&lt;b&gt;ctg1_893&lt;/b&gt;&lt;br&gt;ctg1 893&lt;br&gt;Location: 1095365 - 1096508" locus_tag="ctg1_893" class="clusterblast-orf" id="subclusterblast-4_q3_0_all"  />
<polygon points="179,40 228,40 233,35 228,30 179,30 179,40 " style="fill:white; stroke-width:1; stroke:black; " description="&lt;b&gt;ctg1_894&lt;/b&gt;&lt;br&gt;ctg1 894&lt;br&gt;Location: 1096504 - 1097785" locus_tag="ctg1_894" class="clusterblast-orf" id="subclusterblast-4_q4_0_all"  />
<polygon points="233,40 246,40 251,35 246,30 233,30 233,40 " style="fill:white; stroke-width:1; stroke:black; " description="&lt;b&gt;ctg1_895&lt;/b&gt;&lt;br&gt;ctg1 895&lt;br&gt;Location: 1097781 - 1098201" locus_tag="ctg1_895" class="clusterblast-orf" id="subclusterblast-4_q5_0_all"  />
<polygon points="254,35 259,30 299,30 299,40 259,40 254,35 " style="fill:white; stroke-width:1; stroke:black; " description="&lt;b&gt;ctg1_896&lt;/b&gt;&lt;br&gt;ctg1 896&lt;br&gt;Location: 1098281 - 1099340" locus_tag="ctg1_896" class="clusterblast-orf" id="subclusterblast-4_q6_0_all"  />
<polygon points="302,35 307,30 309,30 309,40 307,40 302,35 " style="fill:white; stroke-width:1; stroke:black; " description="&lt;b&gt;ctg1_897&lt;/b&gt;&lt;br&gt;ctg1 897&lt;br&gt;Location: 1099417 - 1099573" locus_tag="ctg1_897" class="clusterblast-orf" id="subclusterblast-4_q7_0_all"  />
<polygon points="327,35 332,30 350,30 350,40 332,40 327,35 " style="fill:white; stroke-width:1; stroke:black; " description="&lt;b&gt;ctg1_898&lt;/b&gt;&lt;br&gt;ctg1 898&lt;br&gt;Location: 1099991 - 1100546" locus_tag="ctg1_898" class="clusterblast-orf" id="subclusterblast-4_q8_0_all"  />
<polygon points="349,35 354,30 374,30 374,40 354,40 349,35 " style="fill:white; stroke-width:1; stroke:black; " description="&lt;b&gt;ctg1_899&lt;/b&gt;&lt;br&gt;ctg1 899&lt;br&gt;Location: 1100517 - 1101117" locus_tag="ctg1_899" class="clusterblast-orf" id="subclusterblast-4_q9_0_all"  />
<polygon points="375,35 380,30 456,30 456,40 380,40 375,35 " style="fill:white; stroke-width:1; stroke:black; " description="&lt;b&gt;ctg1_900&lt;/b&gt;&lt;br&gt;ctg1 900&lt;br&gt;Location: 1101132 - 1103040" locus_tag="ctg1_900" class="clusterblast-orf" id="subclusterblast-4_q10_0_all"  />
<polygon points="476,35 481,30 486,30 486,40 481,40 476,35 " style="fill:white; stroke-width:1; stroke:black; " description="&lt;b&gt;ctg1_901&lt;/b&gt;&lt;br&gt;ctg1 901&lt;br&gt;Location: 1103523 - 1103760" locus_tag="ctg1_901" class="clusterblast-orf" id="subclusterblast-4_q11_0_all"  />
<polygon points="495,35 500,30 520,30 520,40 500,40 495,35 " style="fill:white; stroke-width:1; stroke:black; " description="&lt;b&gt;ctg1_902&lt;/b&gt;&lt;br&gt;ctg1 902&lt;br&gt;Location: 1103968 - 1104562" locus_tag="ctg1_902" class="clusterblast-orf" id="subclusterblast-4_q12_0_all"  />
<polygon points="519,35 524,30 555,30 555,40 524,40 519,35 " style="fill:white; stroke-width:1; stroke:black; " description="&lt;b&gt;ctg1_903&lt;/b&gt;&lt;br&gt;ctg1 903&lt;br&gt;Location: 1104534 - 1105395" locus_tag="ctg1_903" class="clusterblast-orf" id="subclusterblast-4_q13_0_all"  />
<polygon points="579,40 619,40 624,35 619,30 579,30 579,40 " style="fill:white; stroke-width:1; stroke:black; " description="&lt;b&gt;ctg1_904&lt;/b&gt;&lt;br&gt;ctg1 904&lt;br&gt;Location: 1105963 - 1107019" locus_tag="ctg1_904" class="clusterblast-orf" id="subclusterblast-4_q14_0_all"  />
<polygon points="627,35 632,30 654,30 654,40 632,40 627,35 " style="fill:white; stroke-width:1; stroke:black; " description="&lt;b&gt;ctg1_905&lt;/b&gt;&lt;br&gt;ctg1 905&lt;br&gt;Location: 1107092 - 1107749" locus_tag="ctg1_905" class="clusterblast-orf" id="subclusterblast-4_q15_0_all"  />
<polygon points="660,35 665,30 671,30 671,40 665,40 660,35 " style="fill:white; stroke-width:1; stroke:black; " description="&lt;b&gt;ctg1_906&lt;/b&gt;&lt;br&gt;ctg1 906&lt;br&gt;Location: 1107886 - 1108129" locus_tag="ctg1_906" class="clusterblast-orf" id="subclusterblast-4_q16_0_all"  />
<polygon points="677,40 728,40 733,35 728,30 677,30 677,40 " style="fill:white; stroke-width:1; stroke:black; " description="&lt;b&gt;ctg1_907&lt;/b&gt;&lt;br&gt;ctg1 907&lt;br&gt;Location: 1108282 - 1109605" locus_tag="ctg1_907" class="clusterblast-orf" id="subclusterblast-4_q17_0_all"  />
<polygon points="737,40 775,40 780,35 775,30 737,30 737,40 " style="fill:white; stroke-width:1; stroke:black; " description="&lt;b&gt;ctg1_908&lt;/b&gt;&lt;br&gt;ctg1 908&lt;br&gt;Location: 1109707 - 1110718" locus_tag="ctg1_908" class="clusterblast-orf" id="subclusterblast-4_q18_0_all"  />
</g>
</svg>
