<svg xmlns="http://www.w3.org/2000/svg" xmlns:xlink="http://www.w3.org/1999/xlink" version="1.1" x="0" y="0" height="50" width="800" viewBox="0 0 800 50" preserveAspectRatio="none"  >
<g label="Query sequence" class="clusterblast-cluster"  >
<text x="5" y="20" class="clusterblast-acc"  >
Query sequence</text>
<line x1="10" y1="35" x2="778.0" y2="35" style="stroke-width:1; stroke:grey; "  />
<polygon points="0,40 39,40 44,35 39,30 0,30 0,40 " style="fill:white; stroke-width:1; stroke:black; " description="&lt;b&gt;ctg1_869&lt;/b&gt;&lt;br&gt;ctg1 869&lt;br&gt;Location: 1066607 - 1067648" locus_tag="ctg1_869" class="clusterblast-orf" id="subclusterblast-3_q0_0_all"  />
<polygon points="50,35 55,30 94,30 94,40 55,40 50,35 " style="fill:white; stroke-width:1; stroke:black; " description="&lt;b&gt;ctg1_870&lt;/b&gt;&lt;br&gt;ctg1 870&lt;br&gt;Location: 1067800 - 1068853" locus_tag="ctg1_870" class="clusterblast-orf" id="subclusterblast-3_q1_0_all"  />
<polygon points="96,35 101,30 156,30 156,40 101,40 96,35 " style="fill:white; stroke-width:1; stroke:black; " description="&lt;b&gt;ctg1_871&lt;/b&gt;&lt;br&gt;ctg1 871&lt;br&gt;Location: 1068905 - 1070324" locus_tag="ctg1_871" class="clusterblast-orf" id="subclusterblast-3_q2_0_all"  />
<polygon points="161,35 166,30 179,30 179,40 166,40 161,35 " style="fill:white; stroke-width:1; stroke:black; " description="&lt;b&gt;ctg1_872&lt;/b&gt;&lt;br&gt;ctg1 872&lt;br&gt;Location: 1070448 - 1070880" locus_tag="ctg1_872" class="clusterblast-orf" id="subclusterblast-3_q3_0_all"  />
<polygon points="179,40 187,40 192,35 187,30 179,30 179,40 " style="fill:white; stroke-width:1; stroke:black; " description="&lt;b&gt;ctg1_873&lt;/b&gt;&lt;br&gt;ctg1 873&lt;br&gt;Location: 1070880 - 1071180" locus_tag="ctg1_873" class="clusterblast-orf" id="subclusterblast-3_q4_0_all"  />
<polygon points="215,35 220,30 239,30 239,40 220,40 215,35 " style="fill:white; stroke-width:1; stroke:black; " description="&lt;b&gt;ctg1_874&lt;/b&gt;&lt;br&gt;ctg1 874&lt;br&gt;Location: 1071721 - 1072309" locus_tag="ctg1_874" class="clusterblast-orf" id="subclusterblast-3_q5_0_all"  />
<polygon points="246,40 277,40 282,35 277,30 246,30 246,40 " style="fill:white; stroke-width:1; stroke:black; " description="&lt;b&gt;ctg1_875&lt;/b&gt;&lt;br&gt;ctg1 875&lt;br&gt;Location: 1072470 - 1073319" locus_tag="ctg1_875" class="clusterblast-orf" id="subclusterblast-3_q6_0_all"  />
<polygon points="287,35 292,30 331,30 331,40 292,40 287,35 " style="fill:white; stroke-width:1; stroke:black; " description="&lt;b&gt;ctg1_876&lt;/b&gt;&lt;br&gt;ctg1 876&lt;br&gt;Location: 1073457 - 1074504" locus_tag="ctg1_876" class="clusterblast-orf" id="subclusterblast-3_q7_0_all"  />
<polygon points="361,40 391,40 396,35 391,30 361,30 361,40 " style="fill:white; stroke-width:1; stroke:black; " description="&lt;b&gt;ctg1_877&lt;/b&gt;&lt;br&gt;ctg1 877&lt;br&gt;Location: 1075207 - 1076035" locus_tag="ctg1_877" class="clusterblast-orf" id="subclusterblast-3_q8_0_all"  />
<polygon points="401,40 409,40 414,35 409,30 401,30 401,40 " style="fill:white; stroke-width:1; stroke:black; " description="&lt;b&gt;ctg1_878&lt;/b&gt;&lt;br&gt;ctg1 878&lt;br&gt;Location: 1076157 - 1076478" locus_tag="ctg1_878" class="clusterblast-orf" id="subclusterblast-3_q9_0_all"  />
<polygon points="414,35 419,30 459,30 459,40 419,40 414,35 " style="fill:white; stroke-width:1; stroke:black; " description="&lt;b&gt;ctg1_879&lt;/b&gt;&lt;br&gt;ctg1 879&lt;br&gt;Location: 1076466 - 1077537" locus_tag="ctg1_879" class="clusterblast-orf" id="subclusterblast-3_q10_0_all"  />
<polygon points="479,35 484,30 489,30 489,40 484,40 479,35 " style="fill:white; stroke-width:1; stroke:black; " description="&lt;b&gt;ctg1_880&lt;/b&gt;&lt;br&gt;ctg1 880&lt;br&gt;Location: 1078020 - 1078257" locus_tag="ctg1_880" class="clusterblast-orf" id="subclusterblast-3_q11_0_all"  />
<polygon points="498,35 503,30 552,30 552,40 503,40 498,35 " style="fill:white; stroke-width:1; stroke:black; " description="&lt;b&gt;ctg1_881&lt;/b&gt;&lt;br&gt;ctg1 881&lt;br&gt;Location: 1078465 - 1079752" locus_tag="ctg1_881" class="clusterblast-orf" id="subclusterblast-3_q12_0_all"  />
<polygon points="580,40 620,40 625,35 620,30 580,30 580,40 " style="fill:white; stroke-width:1; stroke:black; " description="&lt;b&gt;ctg1_882&lt;/b&gt;&lt;br&gt;ctg1 882&lt;br&gt;Location: 1080433 - 1081489" locus_tag="ctg1_882" class="clusterblast-orf" id="subclusterblast-3_q13_0_all"  />
<polygon points="628,35 633,30 655,30 655,40 633,40 628,35 " style="fill:white; stroke-width:1; stroke:black; " description="&lt;b&gt;ctg1_883&lt;/b&gt;&lt;br&gt;ctg1 883&lt;br&gt;Location: 1081562 - 1082219" locus_tag="ctg1_883" class="clusterblast-orf" id="subclusterblast-3_q14_0_all"  />
<polygon points="661,35 666,30 671,30 671,40 666,40 661,35 " style="fill:white; stroke-width:1; stroke:black; " description="&lt;b&gt;ctg1_884&lt;/b&gt;&lt;br&gt;ctg1 884&lt;br&gt;Location: 1082356 - 1082599" locus_tag="ctg1_884" class="clusterblast-orf" id="subclusterblast-3_q15_0_all"  />
<polygon points="683,40 728,40 733,35 728,30 683,30 683,40 " style="fill:white; stroke-width:1; stroke:black; " description="&lt;b&gt;ctg1_885&lt;/b&gt;&lt;br&gt;ctg1 885&lt;br&gt;Location: 1082891 - 1084076" locus_tag="ctg1_885" class="clusterblast-orf" id="subclusterblast-3_q16_0_all"  />
<polygon points="737,40 775,40 780,35 775,30 737,30 737,40 " style="fill:white; stroke-width:1; stroke:black; " description="&lt;b&gt;ctg1_886&lt;/b&gt;&lt;br&gt;ctg1 886&lt;br&gt;Location: 1084177 - 1085188" locus_tag="ctg1_886" class="clusterblast-orf" id="subclusterblast-3_q17_0_all"  />
</g>
</svg>
